<svg xmlns="http://www.w3.org/2000/svg" version="1.1" xmlns:xlink="http://www.w3.org/1999/xlink" xmlns:svgjs="http://svgjs.dev/svgjs" width="1000" height="1000" viewBox="0 0 1000 1000"><rect width="1000" height="1000" fill="#ffbe79"></rect><g transform="matrix(0.7,0,0,0.7,149.57575757575756,282.1265587044535)"><svg viewBox="0 0 396 247" data-background-color="#ffbe79" preserveAspectRatio="xMidYMid meet" height="623" width="1000" xmlns="http://www.w3.org/2000/svg" xmlns:xlink="http://www.w3.org/1999/xlink"><g id="tight-bounds" transform="matrix(1,0,0,1,0.2400000000000091,-0.09999999999999432)"><svg viewBox="0 0 395.52 247.2" height="247.2" width="395.52"><g><svg></svg></g><g><svg viewBox="0 0 395.52 247.2" height="247.2" width="395.52"><g><g><path xmlns="http://www.w3.org/2000/svg" d="M123.673 247.2h-31.908l7.833-22.466 31.691 0zM177.955 0h41.077l7.7 22.466-56.611 0zM303.755 247.2h-31.908l-7.489-22.466 31.697 0z" fill="#ba3b0a" fill-rule="nonzero" stroke="none" stroke-width="1" stroke-linecap="butt" stroke-linejoin="miter" stroke-miterlimit="10" stroke-dasharray="" stroke-dashoffset="0" font-family="none" font-weight="none" font-size="none" text-anchor="none" style="mix-blend-mode: normal" data-fill-palette-color="tertiary"></path></g></g><g transform="matrix(1,0,0,1,85.15531593744713,37.08)"><svg viewBox="0 0 225.20936812510573 173.04" height="173.04" width="225.20936812510573"><g><svg viewBox="0 0 225.20936812510573 173.04" height="173.04" width="225.20936812510573"><g><svg viewBox="0 0 386.7310832660377 297.1454838023459" height="173.04" width="225.20936812510573"><g><svg viewBox="0 0 386.7310832660377 297.1454838023459" height="297.1454838023459" width="386.7310832660377"><g><svg viewBox="0 0 386.7310832660377 297.1454838023459" height="297.1454838023459" width="386.7310832660377"><g><svg viewBox="0 0 386.7310832660377 171.9706128" height="171.9706128" width="386.7310832660377"><g transform="matrix(1,0,0,1,0,0)"><svg width="386.7310832660377" viewBox="1.75 -33.70000076293945 95.3499984741211 42.400001525878906" height="171.9706128" data-palette-color="#ba3b0a"><path d="M10.9-14.2L10.9-14.2 10.25-12.3 22.2-12.3 21.55-14.25 16.3-30.45Q15.7-28.3 10.9-14.2ZM9.1-8.85L6.1 0 1.75 0 13.5-33.7 19.1-33.7 30.65 0 26.3 0 23.35-8.85 9.1-8.85ZM69.95-17.4L69.95 0 66 0 66-16.4Q66-22.15 61.15-22.15L61.15-22.15Q58.75-22.15 56.85-19.98 54.95-17.8 54.95-13.85L54.95-13.85 54.95 0 51 0 51-16.4Q51-22.15 46.15-22.15L46.15-22.15Q43.75-22.15 41.85-19.98 39.95-17.8 39.95-13.85L39.95-13.85 39.95 0 36.05 0 36.05-25.35 39.95-25.35 39.95-21.25Q42.05-25.7 47.1-25.7L47.1-25.7Q52.95-25.7 54.5-20.75L54.5-20.75Q55.6-23.15 57.57-24.43 59.55-25.7 62-25.7L62-25.7Q65.95-25.7 67.95-23.45 69.95-21.2 69.95-17.4L69.95-17.4ZM97.1-25.35L87.95-0.65Q86 4.5 83.32 6.6 80.65 8.7 77.2 8.7L77.2 8.7Q75.9 8.7 75.1 8.45L75.1 8.45 75.1 4.9Q75.85 5.1 76.8 5.1L76.8 5.1Q81.85 5.1 83.95-0.65L83.95-0.65 73.7-25.35 78.15-25.35 81.45-17 85.9-5.5Q86.3-6.8 89.9-17L89.9-17 92.85-25.35 97.1-25.35Z" opacity="1" transform="matrix(1,0,0,1,0,0)" fill="#ba3b0a" class="undefined-text-0" data-fill-palette-color="primary" id="text-0"></path></svg></g></svg></g><g transform="matrix(1,0,0,1,0,197.0652525022272)"><svg viewBox="0 0 386.7310832660377 100.08023130011873" height="100.08023130011873" width="386.7310832660377"><g transform="matrix(1,0,0,1,0,0)"><svg width="386.7310832660377" viewBox="-0.6500000357627869 -35 183.52999877929688 47.5" height="100.08023130011873" data-palette-color="#e8772e"><path d="M16.25-22.7L16.25-22.7 16.25-22.4 16.8-25 24-25 19.05-1.8Q21.55-2.7 22.98-4.33 24.4-5.95 25.35-8.95L25.35-8.95 27.45-8.95Q26.3-5.15 24.18-2.85 22.05-0.55 18.6 0.4L18.6 0.4 17.85 4Q16.95 8.2 14.7 10.35 12.45 12.5 8.85 12.5L8.85 12.5Q6.3 12.5 4.78 11.2 3.25 9.9 3.25 7.65L3.25 7.65Q3.25 5.2 5.28 3.33 7.3 1.45 11.4 0.2L11.4 0.2 12-2.45Q10.7-1.1 9.2-0.4 7.7 0.3 6 0.3L6 0.3Q2.9 0.3 1.13-1.8-0.65-3.9-0.65-7.75L-0.65-7.75Q-0.65-10.55 0.2-13.6 1.05-16.65 2.55-19.15L2.55-19.15Q4.4-22.1 6.85-23.68 9.3-25.25 12.2-25.25L12.2-25.25Q14.15-25.25 15.2-24.58 16.25-23.9 16.25-22.7ZM13.25-8.45L15.8-20.3Q15.75-21.1 15.2-21.63 14.65-22.15 13.75-22.15L13.75-22.15Q11-22.15 8.88-17.55 6.75-12.95 6.75-8.45L6.75-8.45Q6.75-6.5 7.3-5.53 7.85-4.55 9.25-4.55L9.25-4.55Q10.45-4.55 11.63-5.65 12.8-6.75 13.25-8.45L13.25-8.45ZM10.6 4.15L10.9 2.7Q8.4 3.65 7.2 4.67 6 5.7 6 6.95L6 6.95Q6 7.6 6.5 8.1 7 8.6 7.7 8.6L7.7 8.6Q8.55 8.6 9.35 7.4 10.15 6.2 10.6 4.15L10.6 4.15ZM24.3-7.7L24.3-7.7Q24.3-10.55 25.22-13.75 26.15-16.95 27.75-19.45L27.75-19.45Q29.6-22.4 32.2-23.93 34.8-25.45 38-25.45L38-25.45Q41.2-25.45 42.8-23.45 44.4-21.45 44.4-17.45L44.4-17.45Q44.5-17.4 44.62-17.38 44.75-17.35 44.95-17.35L44.95-17.35Q46.5-17.35 48.65-18.2 50.8-19.05 52.65-20.35L52.65-20.35 53.1-19Q51.7-17.5 49.37-16.4 47.05-15.3 44.25-14.85L44.25-14.85Q43.65-8.1 40.35-3.95 37.05 0.2 32.3 0.2L32.3 0.2Q28.4 0.2 26.35-1.8 24.3-3.8 24.3-7.7ZM38.4-22.4L38.4-22.4Q36-22.4 33.87-17.55 31.75-12.7 31.75-8.35L31.75-8.35Q31.75-6 32.27-5.15 32.8-4.3 34.3-4.3L34.3-4.3Q36.15-4.3 37.82-7.3 39.5-10.3 40.1-14.7L40.1-14.7Q39.4-14.85 39.07-15.38 38.75-15.9 38.75-16.8L38.75-16.8Q38.75-17.75 39.15-18.45 39.55-19.15 40.3-19.5L40.3-19.5Q40.2-21.1 39.77-21.75 39.35-22.4 38.4-22.4ZM74.04-22.7L74.04-22.7 74.04-22.35 74.59-25 81.79-25 78.19-8Q78.09-7.55 78.04-7.18 77.99-6.8 77.99-6.4L77.99-6.4Q77.99-5.3 78.49-4.78 78.99-4.25 80.04-4.25L80.04-4.25Q81.34-4.25 82.39-5.48 83.44-6.7 84.09-8.95L84.09-8.95 86.19-8.95Q84.59-4.35 82.04-2.02 79.49 0.3 76.14 0.3L76.14 0.3Q73.99 0.3 72.72-0.9 71.44-2.1 71.24-4.3L71.24-4.3Q69.69-2 67.82-0.85 65.94 0.3 63.79 0.3L63.79 0.3Q60.69 0.3 58.92-1.8 57.14-3.9 57.14-7.75L57.14-7.75Q57.14-10.55 57.99-13.6 58.84-16.65 60.34-19.15L60.34-19.15Q62.19-22.1 64.64-23.68 67.09-25.25 69.99-25.25L69.99-25.25Q71.94-25.25 72.99-24.58 74.04-23.9 74.04-22.7ZM71.19-8.95L73.59-20.25Q73.59-21 73.04-21.58 72.49-22.15 71.54-22.15L71.54-22.15Q68.79-22.15 66.67-17.55 64.54-12.95 64.54-8.45L64.54-8.45Q64.54-6.5 65.09-5.53 65.64-4.55 67.04-4.55L67.04-4.55Q68.34-4.55 69.57-5.8 70.79-7.05 71.19-8.95L71.19-8.95ZM96.24-5.35L96.24-5.35Q96.24-6.25 96.47-7.6 96.69-8.95 97.39-11.9L97.39-11.9Q98.09-14.75 98.29-16 98.49-17.25 98.49-18.1L98.49-18.1Q98.49-19.35 98.02-20 97.54-20.65 96.64-20.65L96.64-20.65Q95.44-20.65 94.32-19.23 93.19-17.8 92.84-16.25L92.84-16.25 89.39 0 82.19 0 89.44-34 96.84-35 94.14-22.4Q95.39-23.8 96.84-24.5 98.29-25.2 99.99-25.2L99.99-25.2Q102.64-25.2 104.09-23.75 105.54-22.3 105.54-19.55L105.54-19.55Q105.54-18.4 105.27-16.82 104.99-15.25 104.19-12L104.19-12Q103.54-9.45 103.34-8.4 103.14-7.35 103.14-6.65L103.14-6.65Q103.14-5.6 103.64-5.08 104.14-4.55 105.14-4.55L105.14-4.55Q106.39-4.55 107.29-5.4 108.19-6.25 109.34-8.95L109.34-8.95 111.44-8.95Q109.84-4.3 107.57-2 105.29 0.3 102.14 0.3L102.14 0.3Q99.34 0.3 97.79-1.23 96.24-2.75 96.24-5.35ZM127.44-20.65L127.44-20.65Q127.44-16.5 124.04-13.43 120.64-10.35 115.94-10.1L115.94-10.1Q115.89-9.25 115.86-8.83 115.84-8.4 115.84-8.1L115.84-8.1Q115.84-5.8 116.61-4.85 117.39-3.9 119.44-3.9L119.44-3.9Q121.79-3.9 123.76-4.98 125.74-6.05 128.29-8.95L128.29-8.95 129.99-8.95Q127.09-4.25 123.69-1.98 120.29 0.3 116.24 0.3L116.24 0.3Q112.39 0.3 110.41-1.7 108.44-3.7 108.44-7.65L108.44-7.65Q108.44-10.5 109.34-13.7 110.24-16.9 111.74-19.4L111.74-19.4Q113.59-22.4 116.16-23.93 118.74-25.45 121.94-25.45L121.94-25.45Q124.69-25.45 126.06-24.28 127.44-23.1 127.44-20.65ZM122.34-22.8L122.34-22.8Q120.64-22.8 118.91-19.78 117.19-16.75 116.34-12.5L116.34-12.5Q119.24-12.7 121.41-15.18 123.59-17.65 123.59-20.75L123.59-20.75Q123.59-21.8 123.29-22.3 122.99-22.8 122.34-22.8ZM145.04-22.7L145.04-22.7 145.04-22.35 145.59-25 152.79-25 149.19-8Q149.09-7.55 149.04-7.18 148.99-6.8 148.99-6.4L148.99-6.4Q148.99-5.3 149.49-4.78 149.99-4.25 151.04-4.25L151.04-4.25Q152.34-4.25 153.39-5.48 154.44-6.7 155.09-8.95L155.09-8.95 157.19-8.95Q155.59-4.35 153.04-2.02 150.49 0.3 147.14 0.3L147.14 0.3Q144.99 0.3 143.71-0.9 142.44-2.1 142.24-4.3L142.24-4.3Q140.69-2 138.81-0.85 136.94 0.3 134.79 0.3L134.79 0.3Q131.69 0.3 129.91-1.8 128.14-3.9 128.14-7.75L128.14-7.75Q128.14-10.55 128.99-13.6 129.84-16.65 131.34-19.15L131.34-19.15Q133.19-22.1 135.64-23.68 138.09-25.25 140.99-25.25L140.99-25.25Q142.94-25.25 143.99-24.58 145.04-23.9 145.04-22.7ZM142.19-8.95L144.59-20.25Q144.59-21 144.04-21.58 143.49-22.15 142.54-22.15L142.54-22.15Q139.79-22.15 137.66-17.55 135.54-12.95 135.54-8.45L135.54-8.45Q135.54-6.5 136.09-5.53 136.64-4.55 138.04-4.55L138.04-4.55Q139.34-4.55 140.56-5.8 141.79-7.05 142.19-8.95L142.19-8.95ZM161.28-8.45L161.28-8.45Q161.28-6.5 161.83-5.53 162.38-4.55 163.78-4.55L163.78-4.55Q165.03-4.55 166.23-5.73 167.43-6.9 167.88-8.7L167.88-8.7 167.88-8.95 170.33-20.4Q170.18-21.2 169.66-21.68 169.13-22.15 168.28-22.15L168.28-22.15Q165.53-22.15 163.41-17.55 161.28-12.95 161.28-8.45ZM170.78-22.7L170.78-22.7 170.78-22.5 173.23-34 180.63-35 174.88-8Q174.78-7.55 174.73-7.18 174.68-6.8 174.68-6.4L174.68-6.4Q174.68-5.4 175.16-4.98 175.63-4.55 176.73-4.55L176.73-4.55Q178.03-4.55 179.08-5.7 180.13-6.85 180.78-8.95L180.78-8.95 182.88-8.95Q181.33-4.5 178.86-2.25 176.38 0 172.83 0L172.83 0Q170.78 0 169.51-1.13 168.23-2.25 167.93-4.3L167.93-4.3Q166.43-2 164.58-0.85 162.73 0.3 160.53 0.3L160.53 0.3Q157.43 0.3 155.66-1.8 153.88-3.9 153.88-7.75L153.88-7.75Q153.88-10.55 154.73-13.6 155.58-16.65 157.08-19.15L157.08-19.15Q158.93-22.1 161.38-23.68 163.83-25.25 166.73-25.25L166.73-25.25Q168.68-25.25 169.73-24.58 170.78-23.9 170.78-22.7Z" opacity="1" transform="matrix(1,0,0,1,0,0)" fill="#e8772e" class="undefined-text-1" data-fill-palette-color="secondary" id="text-1"></path></svg></g></svg></g></svg></g></svg></g></svg></g></svg></g></svg></g></svg></g><defs></defs></svg><rect width="395.52" height="247.2" fill="none" stroke="none" visibility="hidden"></rect></g></svg></g></svg>